<?xml version="1.0" standalone="no"?>
<!DOCTYPE svg PUBLIC "-//W3C//DTD SVG 20010904//EN"
 "http://www.w3.org/TR/2001/REC-SVG-20010904/DTD/svg10.dtd">
<svg version="1.0" xmlns="http://www.w3.org/2000/svg"
 width="700.000000pt" height="700.000000pt" viewBox="0 0 700.000000 700.000000"
 preserveAspectRatio="xMidYMid meet">
<metadata>
Created by potrace 1.14, written by Peter Selinger 2001-2017
</metadata>
<g transform="translate(0.000000,700.000000) scale(0.100000,-0.100000)"
fill="#000000" stroke="none">
<path d="M6109 6907 c-18 -29 -40 -65 -49 -82 -10 -16 -64 -106 -120 -200 -56
-93 -110 -183 -120 -200 -24 -42 -257 -433 -515 -865 -120 -201 -223 -374
-229 -385 -6 -11 -19 -31 -27 -45 -9 -14 -60 -99 -114 -190 -53 -91 -107 -181
-120 -200 -70 -109 -226 -383 -221 -387 3 -4 23 -17 43 -30 43 -27 36 -27 -21
2 -31 16 -40 17 -44 7 -8 -24 -64 -83 -94 -98 -64 -33 -181 -13 -283 48 l-51
30 2 247 c9 1071 15 1860 17 2045 l2 219 -263 3 -262 2 -1 -67 c-1 -92 -6
-697 -13 -1666 -4 -451 -9 -1029 -11 -1285 -4 -424 -12 -1396 -20 -2425 -4
-486 -7 -1196 -6 -1211 1 -7 82 -11 261 -13 l260 -2 1 143 c0 79 2 303 4 498
2 195 6 720 10 1165 4 446 8 981 10 1190 2 209 4 424 4 479 1 97 1 98 24 92
94 -28 342 -43 375 -22 5 3 24 8 42 11 18 3 55 15 82 27 28 12 52 17 57 12 4
-5 36 -79 71 -164 35 -85 76 -183 92 -217 15 -34 30 -74 34 -88 3 -14 10 -28
15 -31 5 -3 9 -12 9 -19 0 -8 11 -38 24 -67 33 -74 66 -154 121 -288 25 -63
52 -128 60 -145 7 -16 140 -336 295 -710 155 -374 288 -693 295 -710 22 -48
66 -156 85 -205 10 -25 82 -198 160 -385 78 -187 158 -378 177 -425 18 -47 40
-98 48 -115 7 -16 21 -50 31 -75 9 -25 18 -46 19 -48 1 -1 110 43 241 97 145
61 239 105 238 113 -1 11 -361 884 -409 993 -7 17 -25 59 -40 95 -55 133 -97
236 -110 265 -7 17 -57 136 -110 265 -53 129 -103 249 -110 265 -13 31 -174
418 -305 735 -40 96 -78 189 -86 205 -7 17 -52 125 -100 240 -47 116 -97 234
-110 262 -13 29 -26 64 -30 78 -3 14 -10 28 -15 31 -5 3 -9 12 -9 19 0 8 -11
38 -24 67 -58 130 -166 394 -166 407 0 5 47 88 104 183 123 206 382 642 405
680 19 32 258 431 348 580 34 57 68 114 75 128 8 14 108 182 224 375 115 192
211 354 213 358 2 5 27 48 57 95 41 67 50 90 41 98 -7 6 -75 49 -152 94 -77
46 -172 103 -212 126 l-72 43 -32 -52z"/>
<path d="M2257 6754 c-1 -1 -38 -4 -82 -8 -44 -3 -96 -8 -115 -10 -19 -3 -55
-8 -80 -11 -62 -8 -223 -42 -290 -61 -30 -8 -59 -16 -65 -18 -139 -35 -396
-156 -535 -254 -186 -130 -318 -265 -449 -457 -175 -257 -302 -609 -347 -960
-27 -210 -29 -311 -29 -1460 1 -1014 4 -1265 20 -1375 2 -14 6 -50 10 -80 3
-30 10 -73 15 -95 5 -22 12 -56 15 -75 12 -74 49 -210 87 -320 173 -504 506
-875 969 -1082 183 -82 303 -117 554 -164 22 -4 45 -8 50 -9 57 -11 223 -25
358 -29 l107 -4 0 264 0 264 -82 1 c-85 0 -122 3 -218 13 -88 10 -110 14 -195
31 -44 9 -89 19 -100 21 -113 22 -334 118 -454 198 -335 223 -548 634 -597
1151 -4 39 -8 84 -10 100 -6 53 -6 2328 1 2400 57 670 294 1092 740 1322 73
38 315 128 315 118 0 -3 11 0 25 5 29 11 175 37 260 45 33 4 71 8 84 10 13 3
71 5 128 6 l103 1 0 264 0 264 -96 -3 c-53 -1 -96 -3 -97 -3z"/>
</g>
</svg>
